<svg xmlns="http://www.w3.org/2000/svg" xmlns:xlink="http://www.w3.org/1999/xlink" version="1.1" x="0px" y="0px" viewBox="0 0 100 100" style="enable-background:new 0 0 100 100;" xml:space="preserve"><style type="text/css">
	.st0{display:none;}
	.st1{display:inline;opacity:0.17;}
	.st2{display:inline;fill:none;stroke:#39374A;stroke-linecap:round;stroke-linejoin:round;stroke-miterlimit:10;}
	.st3{display:inline;fill:#39374A;}
	.st4{display:inline;fill:none;stroke:#39374A;stroke-miterlimit:10;}
	
		.st5{display:inline;fill:none;stroke:#39374A;stroke-width:0.9646;stroke-linecap:round;stroke-linejoin:round;stroke-miterlimit:10;}
</style><g class="st0"><rect x="42.6" y="45.2" class="st2" width="28.6" height="15.3"></rect><line class="st2" x1="42.6" y1="58.9" x2="71.2" y2="58.9"></line><line class="st2" x1="62.8" y1="57" x2="73.7" y2="57"></line><line class="st2" x1="58.9" y1="57" x2="60.8" y2="57"></line><line class="st2" x1="66.4" y1="54.8" x2="68.2" y2="54.8"></line><line class="st2" x1="70.1" y1="54.8" x2="74.8" y2="54.8"></line><circle class="st2" cx="46.8" cy="63" r="2.3"></circle><circle class="st3" cx="46.8" cy="63" r="1.1"></circle><circle class="st2" cx="35.1" cy="63" r="2.3"></circle><circle class="st3" cx="35.1" cy="63" r="1.1"></circle><circle class="st3" cx="52.7" cy="63" r="1.1"></circle><circle class="st3" cx="61.4" cy="63" r="1.1"></circle><circle class="st3" cx="67.2" cy="63" r="1.1"></circle><circle class="st2" cx="52.7" cy="63" r="2.3"></circle><circle class="st2" cx="61.4" cy="63" r="2.3"></circle><circle class="st2" cx="67.2" cy="63" r="2.3"></circle><line class="st2" x1="50.4" y1="63" x2="49.1" y2="63"></line><line class="st4" x1="63.7" y1="63" x2="65.2" y2="63"></line><line class="st2" x1="69.5" y1="63" x2="72.4" y2="63"></line><line class="st2" x1="71.2" y1="60.6" x2="71.2" y2="63"></line><line class="st2" x1="44.6" y1="63.3" x2="40.7" y2="63.3"></line><line class="st2" x1="44.9" y1="61.8" x2="40.7" y2="61.8"></line><line class="st2" x1="40.7" y1="63.3" x2="40.7" y2="42.9"></line><line class="st2" x1="40.7" y1="42.9" x2="42.4" y2="42.9"></line><line class="st2" x1="40.4" y1="48.4" x2="30.6" y2="48.4"></line><line class="st2" x1="30.6" y1="48.4" x2="30.6" y2="56.1"></line><polyline class="st2" points="25.9,59.7 25.9,56.4 25.9,56.1 30.6,56.1 32.8,56.1 32.8,50 30.6,50  "></polyline><path class="st2" d="M42.4,63.3h-3.2V63c0-2.2-1.8-4-4-4s-4,1.8-4,4v0.3h-4.9h-0.3v-1.1"></path><rect x="34.7" y="50" class="st2" width="3.6" height="6.1"></rect><rect x="24.7" y="60.1" class="st2" width="2.5" height="1.8"></rect><path class="st2" d="M33.2,48.4L33.2,48.4c0-1.6,1.3-2.9,2.9-2.9h0.1h4.5"></path><line class="st5" x1="54.9" y1="41.4" x2="56.2" y2="41.4"></line><path class="st3" d="M53.7,41h-2.8c-0.3,0-0.5-0.2-0.5-0.5s0.2-0.5,0.5-0.5h2.8c0.2-0.1,0.4-0.2,0.4-0.5   c0-0.3-0.2-0.5-0.5-0.5h-7.6c-0.3,0-0.5,0.2-0.5,0.5c0,0.2,0.2,0.4,0.4,0.5h0.6c0.3,0,0.5,0.2,0.5,0.5S46.7,41,46.5,41l-0.6,0   c0,0,0,0,0,0c-0.2,0-0.4,0.2-0.4,0.5c0,0.2,0.1,0.4,0.3,0.4h1.5c0.3,0,0.5,0.2,0.5,0.5s-0.2,0.5-0.5,0.5h-2.7c0,0,0,0,0,0   c-0.3,0-0.5,0.2-0.5,0.5s0.2,0.5,0.5,0.5h8.1c0.3,0,0.5-0.2,0.5-0.5c0-0.2-0.1-0.4-0.3-0.5h-2.1c-0.3,0-0.5-0.2-0.5-0.5   s0.2-0.5,0.5-0.5h2.1c0,0,0,0,0,0h0.7c0.3,0,0.5-0.2,0.5-0.5C54,41.2,53.9,41.1,53.7,41z"></path></g><g><path d="M74.5,63.7c4.7-1.9,8.1-7.6,8.1-14.3c0-8.3-5.2-15-11.5-15c-1.8,0-3.5,0.5-5,1.5c-0.5-0.9-1.1-1.7-1.7-2.4   c0,0,0-0.1,0-0.1c-0.8-1.1-1.9-2.1-3.2-3c-2.7-2-6.1-3.1-9.6-3.1c-1.7,0-3.4,0.3-5,0.8c-2.2,0.6-4.6,1.9-6.7,4.1   c-0.1,0.1-0.2,0.2-0.3,0.3c-0.1,0.2-0.3,0.3-0.4,0.4c0,0.1-0.1,0.1-0.1,0.2c-0.7,0.9-1.4,1.8-2,2.8c-1.5-1-3.2-1.4-4.9-1.4   c-6.3,0-11.5,6.7-11.5,15c0,6.7,3.3,12.4,8.1,14.3c-0.1,0.5-0.2,1.1-0.3,1.6c-0.1,0.5-0.1,1.1-0.1,1.6c0,9.2,10.5,16.7,23.3,16.7   s23.3-7.5,23.3-16.7c0-0.5,0-1.1-0.1-1.6C74.8,64.8,74.7,64.3,74.5,63.7C74.5,63.8,74.5,63.7,74.5,63.7z M78.8,49.4   c0,5.1-2.5,9.6-5.8,10.8c-1.2-1.9-2.8-3.7-5-5.2V43.7c0-1.4-0.2-2.9-0.6-4.3c0.9-0.7,2.1-1.3,3.6-1.3   C75.3,38.1,78.8,43.2,78.8,49.4z M24.4,49.4c0-6.2,3.5-11.2,7.7-11.2c1.4,0,2.6,0.6,3.5,1.3c-0.4,1.4-0.6,2.9-0.6,4.3v11.4l0,0   c-2.1,1.5-3.7,3.2-4.8,5.1C26.9,58.9,24.4,54.5,24.4,49.4z M51.6,79.8C40.8,79.8,32,74,32,66.9c0-0.6,0.1-1.1,0.2-1.7   c0-0.1,0-0.2,0.1-0.3c0.1-0.6,0.3-1.1,0.6-1.7c0,0,0,0,0,0c0.9-1.9,2.4-3.6,4.5-5.1c0.1-0.1,0.2-0.2,0.3-0.3l0.6-0.7   c0.3-0.3,0.5-0.8,0.5-1.3V43.7c0-1.5,0.3-2.9,0.8-4.3c0,0,0,0,0,0c0.3-0.8,0.6-1.5,1.3-2.5c0.7-1,2.4-1.8,3.6-1.8   c3.3,0,4.7,1.8,5.1,3.2c0.3,0.7,1,1.2,1.8,1.3c0,0,0,0,0,0c0.8,0,1.5-0.5,1.8-1.2c1.1-3.3,6.1-4.6,8.5-2.4c1.4,1.4,1.5,2.3,2,3.6   c0,0.1,0.1,0.2,0.2,0.3c0,0.1,0,0.1,0,0.2c0.4,1.2,0.6,2.5,0.6,3.8v12.1c0,0.5,0.2,1,0.5,1.3l0.5,0.5c0.1,0.1,0.2,0.2,0.3,0.3   c2.2,1.5,3.8,3.3,4.7,5.3c0,0,0,0,0,0c0.2,0.5,0.4,1.1,0.6,1.6c0,0.1,0.1,0.2,0.1,0.4c0.1,0.6,0.2,1.1,0.2,1.7   C71.2,74,62.4,79.8,51.6,79.8z"></path></g></svg>