<svg xmlns="http://www.w3.org/2000/svg" xmlns:xlink="http://www.w3.org/1999/xlink" version="1.1" x="0px" y="0px" viewBox="0 0 100 100" enable-background="new 0 0 100 100" xml:space="preserve"><g><g><path d="M42.083,71.022C36.501,77.258,24.05,89.073,6.887,93.062C10.786,75.69,22.616,63.343,28.88,57.818L42.083,71.022z"></path><path d="M6.887,96.015c-0.771,0-1.522-0.302-2.081-0.856c-0.722-0.717-1.024-1.752-0.801-2.745    c4.041-18.001,16.095-30.788,22.92-36.81c1.168-1.027,2.941-0.977,4.043,0.128l13.204,13.202c1.108,1.108,1.158,2.891,0.112,4.059    C38.199,79.79,25.335,91.806,7.556,95.938C7.334,95.99,7.108,96.015,6.887,96.015z M28.79,61.906    c-5.679,5.4-13.617,14.623-17.659,26.877c12.135-4.096,21.397-12.022,26.851-17.685L28.79,61.906z"></path></g><g><path d="M28.88,60.773c-0.757,0-1.513-0.289-2.09-0.866l-4.49-4.489c-1.153-1.153-1.153-3.022,0-4.177l10.064-10.064l8.697-23.167    c0.146-0.394,0.378-0.752,0.676-1.05l6.707-6.706c1.152-1.153,3.021-1.153,4.176,0c1.154,1.154,1.154,3.024,0,4.177l-6.252,6.253    L37.67,43.852c-0.146,0.394-0.378,0.752-0.676,1.05l-8.428,8.427l2.401,2.402c1.153,1.153,1.153,3.022,0,4.176    C30.391,60.484,29.635,60.773,28.88,60.773z"></path></g><g><path d="M46.572,78.468c-0.755,0-1.511-0.288-2.088-0.866l-4.49-4.49c-1.154-1.155-1.154-3.024,0-4.178    c1.154-1.152,3.023-1.152,4.178,0l2.4,2.402L55,62.91c0.301-0.301,0.66-0.533,1.059-0.68l23.205-8.639l6.25-6.25    c1.155-1.153,3.024-1.153,4.179,0c1.152,1.153,1.152,3.023,0,4.178l-6.705,6.705c-0.301,0.301-0.663,0.531-1.059,0.68    l-23.205,8.639L48.661,77.602C48.084,78.18,47.328,78.468,46.572,78.468z"></path></g><g><path d="M87.604,52.464c-0.757,0-1.512-0.287-2.09-0.865L48.44,14.525c-1.153-1.153-1.153-3.023,0-4.177l5.51-5.51    c1.153-1.154,3.022-1.154,4.177,0c1.154,1.153,1.154,3.024,0,4.177l-3.421,3.421l32.897,32.896l3.422-3.42    c1.152-1.154,3.021-1.154,4.177,0c1.153,1.153,1.153,3.024,0,4.177l-5.51,5.509C89.114,52.177,88.359,52.464,87.604,52.464z"></path></g><g><path d="M80.896,59.171c-0.756,0-1.513-0.287-2.089-0.865L41.733,21.232c-1.153-1.153-1.153-3.024,0-4.177    c1.153-1.154,3.022-1.154,4.178,0L82.984,54.13c1.155,1.152,1.155,3.021,0,4.176C82.408,58.884,81.651,59.171,80.896,59.171z"></path></g></g></svg>