<svg xmlns="http://www.w3.org/2000/svg" xmlns:xlink="http://www.w3.org/1999/xlink" viewBox="0 0 24 24" version="1.1" x="0px" y="0px"><title>31 - American Flag (Solid)</title><desc>Created with Sketch.</desc><g stroke="none" stroke-width="1" fill="none" fill-rule="evenodd"><g fill="#000000"><path d="M22.0002,14.0016 L18.0002,14.0016 L18.0002,13.0016 L18.0002,6.0016 L22.0002,6.0016 L22.0002,14.0016 Z M3.0002,19.0016 L3.0002,3.0016 C3.0002,2.4506 3.4482,2.0016 4.0002,2.0016 C4.5522,2.0016 5.0002,2.4506 5.0002,3.0016 L5.0002,13.0016 L5.0002,19.0016 L3.0002,19.0016 Z M23.0002,4.0016 L18.0002,4.0016 L18.0002,3.0016 C18.0002,2.4496 17.5532,2.0016 17.0002,2.0016 L6.8162,2.0016 C6.4022,0.8406 5.3022,0.0016 4.0002,0.0016 C2.3462,0.0016 1.0002,1.3476 1.0002,3.0016 L1.0002,19.0016 C0.4472,19.0016 0.0002,19.4496 0.0002,20.0016 L0.0002,23.0016 C0.0002,23.5536 0.4472,24.0016 1.0002,24.0016 L7.0002,24.0016 C7.5532,24.0016 8.0002,23.5536 8.0002,23.0016 L8.0002,20.0016 C8.0002,19.4496 7.5532,19.0016 7.0002,19.0016 L7.0002,14.0016 L16.0002,14.0016 L16.0002,15.0016 C16.0002,15.5536 16.4472,16.0016 17.0002,16.0016 L23.0002,16.0016 C23.5532,16.0016 24.0002,15.5536 24.0002,15.0016 L24.0002,5.0016 C24.0002,4.4496 23.5532,4.0016 23.0002,4.0016 L23.0002,4.0016 Z"></path></g></g></svg>