<svg xmlns="http://www.w3.org/2000/svg" xmlns:xlink="http://www.w3.org/1999/xlink" version="1.1" x="0px" y="0px" viewBox="0 0 512 512" enable-background="new 0 0 512 512" xml:space="preserve"><path d="M387.3,331c-15.1,0-28.8,6.1-38.9,15.8l-19.7-9.9c1.5-8,2.4-16.2,2.4-24.6c0-32-11.6-61.4-30.7-84.2l60.2-54.1  c8,4.4,17,7.1,26.8,7.1c31,0,56.3-25.2,56.3-56.3s-25.2-56.3-56.3-56.3S331,93.7,331,124.8c0,7.6,1.5,14.8,4.3,21.4l-63.1,56.8  c-20.8-13.8-45.7-21.9-72.4-21.9c-9.7,0-19.1,1.1-28.2,3.1l-8.3-18.6c10.8-10.3,17.7-24.7,17.7-40.8c0-31-25.2-56.3-56.3-56.3  s-56.2,25.2-56.2,56.3S93.7,181,124.8,181c1.4,0,2.8-0.3,4.2-0.4l7.5,16.8C96,219.8,68.5,262.8,68.5,312.3  c0,72.4,58.9,131.3,131.3,131.3c50.6,0,94.5-28.8,116.4-70.9l15.5,7.8c-0.3,2.3-0.7,4.5-0.7,6.8c0,31,25.2,56.3,56.3,56.3  s56.3-25.2,56.3-56.3S418.3,331,387.3,331z M106,124.8c0-10.3,8.4-18.8,18.8-18.8c10.3,0,18.8,8.4,18.8,18.8s-8.4,18.8-18.8,18.8  C114.4,143.5,106,135.1,106,124.8z M387.3,106c10.3,0,18.8,8.4,18.8,18.8s-8.4,18.8-18.8,18.8c-10.3,0-18.8-8.4-18.8-18.8  S376.9,106,387.3,106z M162.2,398v-10.9c0-10.3,8.4-18.8,18.8-18.8h37.5c10.3,0,18.8,8.4,18.8,18.8v10.9c-11.5,5-24.1,7.9-37.4,7.9  C186.4,406,173.7,403.1,162.2,398z M181,293.5c0-10.3,8.4-18.8,18.8-18.8c10.3,0,18.8,8.4,18.8,18.8s-8.4,18.8-18.8,18.8  C189.4,312.3,181,303.8,181,293.5z M272.1,371.1c-5.1-16.9-17.7-30.4-34.2-36.6c11.1-10.3,18.1-24.8,18.1-41.1  c0-31-25.2-56.3-56.3-56.3s-56.3,25.2-56.3,56.3c0,16.2,7,30.8,18.1,41.1c-16.5,6.1-29.1,19.6-34.2,36.5  c-13.1-16.1-21.3-36.4-21.3-58.8c0-51.7,42.1-93.8,93.8-93.8c51.7,0,93.8,42.1,93.8,93.8C293.5,334.7,285.3,355,272.1,371.1z   M387.3,406c-10.3,0-18.8-8.4-18.8-18.8s8.4-18.8,18.8-18.8c10.3,0,18.8,8.4,18.8,18.8S397.6,406,387.3,406z"></path></svg>