<svg xmlns="http://www.w3.org/2000/svg" xmlns:xlink="http://www.w3.org/1999/xlink" version="1.1" x="0px" y="0px" viewBox="0 0 100 100" enable-background="new 0 0 100 100" xml:space="preserve"><g><path d="M92.43,7.571c-1.643-1.644-4.307-1.644-5.95,0L64.667,29.385c-1.097-1.095-2.871-1.095-3.967,0l-3.966,3.965l0,0   l-3.966-3.965c-2.189-2.19-5.74-2.19-7.931,0L20.05,54.174c-2.19,2.19-2.19,5.74,0,7.932l3.965,3.965L12.118,77.968l0,0   l-0.991-0.991c-1.095-1.093-2.872-1.093-3.966,0c-1.096,1.095-1.096,2.872,0,3.965l11.899,11.9c1.093,1.093,2.869,1.093,3.965,0   c1.095-1.096,1.095-2.873,0-3.969l-0.992-0.991l11.897-11.897l3.856,3.856c2.191,2.191,5.853,2.301,8.043,0.109l24.786-24.788   c2.189-2.188,2.077-5.852-0.11-8.042l-3.856-3.854l3.967-3.967c1.095-1.094,1.095-2.872,0-3.966l0,0L92.43,13.519   C94.074,11.877,94.071,9.213,92.43,7.571z M62.685,53.18L43.846,72.02c-1.094,1.095-2.873,1.095-3.966,0L27.982,60.122   c-1.094-1.096-1.094-2.873,0-3.966l18.841-18.84c1.093-1.094,2.87-1.096,3.965,0l5.945,5.944c0.001,0.003,0.004,0.003,0.004,0.005   c0.003,0.001,0.003,0.001,0.003,0.003l5.945,5.946C63.778,50.31,63.778,52.084,62.685,53.18z"></path><polygon points="42.953,68.229 52.769,58.413 31.736,58.413  "></polygon></g></svg>