<svg xmlns="http://www.w3.org/2000/svg" viewBox="0 0 32 32" enable-background="new 0 0 32 32" x="0px" y="0px"><g><path d="M5.078 32h-3.082c-1.101 0-1.996-.896-1.996-1.996v-11.008c0-1.1.895-1.996 1.996-1.996h3.929c.554 0 1.087.233 1.464.64.377.406.568.957.526 1.509l-.847 11.01c-.08 1.031-.954 1.841-1.99 1.841zm0-2v1-1zm.842-11.005l-3.924.005.004 11.004 3.075-.004.845-11.005zM18 31c-3.259 0-6.831-.696-9.553-1.863l-2.543-1.09c-.507-.218-.743-.806-.525-1.312.216-.508.805-.747 1.313-.525l2.543 1.09c2.486 1.064 5.763 1.7 8.765 1.7 3.855 0 6.927-1.308 10.844-3.154 1.073-.505 1.156-1.045 1.156-1.199 0-.213-.063-.384-.188-.51-.158-.158-.946-.189-2.131.249-.252.094-.499.174-.759.24-3.367.868-8.02 1.053-11.577.46-.536-.089-.902-.59-.825-1.128.077-.538.559-.92 1.109-.852 1.96.235 3.554.2 4.871-.11.462-.069.744-.396.744-.773 0-.39-.286-.708-.68-.757-1.918-.236-4.356-.572-6.766-1.15-.529-.127-1.71-.316-2.798-.316-1.336 0-2.201.334-3.615.923-.509.214-1.095-.029-1.308-.538-.213-.51.028-1.096.538-1.308 1.608-.67 2.705-1.077 4.385-1.077 1.181 0 2.521.192 3.265.371 2.312.555 4.677.881 6.479 1.104 1.453.18 2.499 1.358 2.499 2.749 0 .367-.073.721-.208 1.046 1.216-.124 2.374-.317 3.387-.579.193-.05.378-.11.566-.18 1.095-.406 3.104-.919 4.238.213.5.501.774 1.183.774 1.923 0 .578-.225 2.028-2.304 3.007-3.325 1.569-7.094 3.346-11.696 3.346zM25.26 18l-.213-.023c-.146-.031-3.586-.79-6.226-2.078-7.729-3.771-4.911-14.694-4.788-15.157.131-.49.607-.799 1.11-.731 8.087 1.177 10.991 4.594 12.001 6.526 2.342 4.476-.863 10.667-1.001 10.929-.174.333-.518.534-.883.534zm-9.48-15.862c-.451 2.473-1.212 9.46 3.918 11.963 1.71.834 3.87 1.445 5.002 1.735.692-1.596 2.133-5.583.674-8.373-.798-1.524-3.096-4.178-9.594-5.325zM26.354 24.683c-.553 0-1-.447-1-1 0-8.179-5.792-14.96-5.851-15.028-.361-.417-.316-1.049.102-1.411.415-.361 1.048-.316 1.41.101.259.299 6.339 7.421 6.339 16.337 0 .553-.447 1.001-1 1.001z"></path></g></svg>