<svg xmlns="http://www.w3.org/2000/svg" xmlns:xlink="http://www.w3.org/1999/xlink" version="1.1" x="0px" y="0px" viewBox="0 0 95 95" enable-background="new 0 0 95 95" xml:space="preserve"><g><path fill="#000000" d="M53.073,40.29c-2.606,0-4.812,1.702-5.573,4.055c-0.762-2.353-2.967-4.055-5.572-4.055   c-3.235,0-5.858,2.623-5.858,5.858c0,1.559,0.613,2.972,1.607,4.022h-0.012L47.496,60l9.636-9.638   c0.053-0.05,0.104-0.102,0.156-0.153l0.038-0.038h-0.004c0.994-1.051,1.607-2.463,1.607-4.022   C58.93,42.913,56.308,40.29,53.073,40.29z"></path><path fill="#000000" d="M86.496,32.125H62.875V8.504C62.875,3.808,59.066,0,54.371,0H40.629c-4.697,0-8.504,3.808-8.504,8.504   v23.621H8.504C3.807,32.125,0,35.933,0,40.629v13.742c0,4.695,3.807,8.504,8.504,8.504h23.621v23.621   c0,4.695,3.807,8.504,8.504,8.504h13.742c4.695,0,8.504-3.809,8.504-8.504V62.875h23.621c4.695,0,8.504-3.809,8.504-8.504V40.629   C95,35.933,91.191,32.125,86.496,32.125z M90,54.371c0,1.932-1.572,3.504-3.504,3.504H62.875h-5v5v23.621   c0,1.932-1.572,3.504-3.504,3.504H40.629c-1.932,0-3.504-1.572-3.504-3.504V62.875v-5h-5H8.504C6.572,57.875,5,56.303,5,54.371   V40.629c0-1.932,1.572-3.504,3.504-3.504h23.621h5v-5V8.504C37.125,6.572,38.697,5,40.629,5h13.742   c1.932,0,3.504,1.572,3.504,3.504v23.621v5h5h23.621c1.932,0,3.504,1.572,3.504,3.504V54.371z"></path></g></svg>