<svg xmlns="http://www.w3.org/2000/svg" xmlns:xlink="http://www.w3.org/1999/xlink" version="1.1" x="0px" y="0px" viewBox="-346 256 100 100" enable-background="new -346 256 100 100" xml:space="preserve"><g><g><path d="M-305.12,276.475c2.31-0.184,4.2-1.164,5.672-2.932c1.479-1.764,2.128-3.813,1.942-6.137    c-0.188-2.326-1.156-4.235-2.911-5.72c-1.752-1.488-3.735-2.142-5.946-1.955c-2.311,0.184-4.202,1.16-5.677,2.928    c-1.477,1.768-2.124,3.817-1.937,6.142c0.187,2.232,1.129,4.096,2.836,5.581C-309.434,275.867-307.427,276.566-305.12,276.475z"></path><path d="M-263.606,267.291l5.226-2.06c0.857-0.334,1.278-1.303,0.942-2.163c-0.337-0.855-1.312-1.277-2.163-0.938l-2.968,1.166    l2.001-3.526c0.454-0.801,0.175-1.82-0.627-2.274c-0.807-0.454-1.819-0.169-2.273,0.628l-2.427,4.276l-2.597-5.268    c-0.409-0.826-1.401-1.166-2.234-0.76c-0.826,0.408-1.164,1.407-0.759,2.232l3.386,6.871l-50.977,20.067l-0.381-0.6    c-1.156-1.815-3.564-2.345-5.373-1.194c-1.586,1.01-2.193,2.978-1.549,4.669l-2.902,1.142c-0.856,0.334-1.278,1.304-0.94,2.163    c0.259,0.656,0.887,1.056,1.552,1.056c0.204,0,0.41-0.037,0.611-0.118l3.428-1.349l8.986,14.119    c0.72,1.128,1.962,1.802,3.283,1.802c0.135,0,0.271-0.007,0.409-0.021c1.468-0.154,2.723-1.127,3.238-2.511l2.249-6.037    l2.555,10.821l-14.806,17.432c-0.278,0.559-0.508,1.154-0.695,1.803l-3.874,20.896c0,0.552-0.043,0.969-0.139,1.244    c0.187,1.476,0.855,2.719,2.011,3.74c1.151,1.012,2.51,1.468,4.079,1.377c2.862-0.274,4.569-1.751,5.121-4.426l3.739-19.649    l11.897-13.147l2.771,12.729c0.46,1.02,0.827,1.803,1.103,2.354l11.484,19.376c1.203,2.026,2.958,2.949,5.26,2.763    c1.572-0.185,2.863-0.855,3.874-2.016c1.017-1.153,1.434-2.521,1.247-4.092c0-0.833-0.23-1.622-0.694-2.366l-10.716-18.056    l-8.996-39.36l6.012,4.865l3.049,13.974c0.46,2.221,1.794,3.82,4.014,3.634c2.489-0.18,3.597-2.103,3.313-4.584    c0-0.089,0-0.233,0-0.411l-3.73-16.274c-0.092-0.73-0.46-1.329-1.107-1.79l-13.021-10.25c-0.165-0.128-0.354-0.208-0.546-0.284    l23.533-9.265c-2.87,4.185-6.257,10.079-6.257,14.637c0,7.936,5.651,11.241,10.207,11.241h0.026c4.557,0,9.854-3.305,9.854-11.241    C-255.899,278.81-260.707,271.311-263.606,267.291z M-313.277,294.654l-3.975-6.246l7.387-2.907L-313.277,294.654z"></path></g></g></svg>