<svg xmlns="http://www.w3.org/2000/svg" xmlns:xlink="http://www.w3.org/1999/xlink" version="1.1" x="0px" y="0px" viewBox="0 0 20 20" enable-background="new 0 0 20 20" xml:space="preserve"><g><path fill="#000000" d="M7,0C6.6,0,6.2,0.3,6.1,0.7l-6,18c-0.1,0.4,0,0.8,0.2,1c0.5,0.4,0.9,0.3,1,0.2l18-6   c0.4-0.1,0.7-0.5,0.7-0.9C20,5.8,14.2,0,7,0z M6.6,5.3c4,1,7.1,4.1,8.1,8.1l-12.1,4L6.6,5.3z M16.6,12.8c-1.2-4.6-4.7-8.2-9.3-9.3   L7.7,2c5.5,0.4,9.9,4.8,10.3,10.3L16.6,12.8z"></path><circle fill="#000000" cx="8" cy="9" r="1"></circle><circle fill="#000000" cx="6" cy="14" r="1"></circle><circle fill="#000000" cx="10" cy="12" r="1"></circle></g></svg>