<?xml version="1.0" encoding="UTF-8"?>
<svg width="25px" height="26px" viewBox="0 0 25 26" version="1.1" xmlns="http://www.w3.org/2000/svg" xmlns:xlink="http://www.w3.org/1999/xlink">
    <!-- Generator: Sketch 42 (36781) - http://www.bohemiancoding.com/sketch -->
    <title>Artboard</title>
    <desc>Created with Sketch.</desc>
    <defs></defs>
    <g id="Page-1" stroke="none" stroke-width="1" fill="none" fill-rule="evenodd">
        <g id="Artboard" fill-rule="nonzero" fill="#5B79A8">
            <g id="Group" transform="translate(12.500000, 12.500000) scale(-1, 1) translate(-12.500000, -12.500000) ">
                <path d="M24.1037942,1.30527211 C24.4003928,1.60190221 25.2310051,11.0940476 19.8916343,16.4334184 C14.5522636,21.7727891 5.23809693,21.0608844 4.76348809,20.6455782" id="path1_fill" opacity="0.504132699"></path>
                <path d="M8.54307477,4.69073882 C13.9415442,-0.707926151 23.6706258,-0.351972069 24.501068,0.478594257 C25.1537891,1.13118099 25.7474965,10.9793358 20.2892482,16.437329 C15.483636,21.2426861 7.29660368,21.480016 4.92412919,20.8867337 L1.00873803,24.8022949 C0.771243984,25.0395398 0.414997385,25.0395398 0.177499936,24.8022949 C-0.0591666454,24.564965 -0.0591666454,24.2090126 0.177499936,23.9716827 L4.15267511,19.9968528 C3.67768361,17.6831623 3.73747102,9.49617249 8.54307477,4.69073882 Z M5.99203735,19.8188766 C8.48326184,20.0562065 15.2469863,19.7595228 19.4588061,15.547448 C24.1456258,10.8606283 23.8491972,2.73298371 23.6116972,1.30915718 C22.1285339,0.953196298 14.1192652,0.775219257 9.43244551,5.46198031 C5.28037068,9.61479494 5.04287068,16.3779752 5.22058327,18.9289956 L8.83950334,15.3101181 L8.83950334,10.6826521 C8.83950334,10.3860534 9.13593191,10.0894548 9.43244551,10.0894548 C9.788653,10.0894548 10.026153,10.3860534 10.026153,10.6826521 L10.026153,14.1235534 L12.2209659,11.9284854 L12.2209659,6.47052623 C12.2209659,6.17389358 12.5173945,5.87726092 12.8146734,5.87726092 C13.111102,5.87726092 13.4076156,6.17389358 13.4076156,6.47052623 L13.4076156,10.7420058 L15.6023435,8.54693779 L15.6023435,4.75006705 C15.6023435,4.45343439 15.8996224,4.15680174 16.196136,4.15680174 C16.4925646,4.15680174 16.7889931,4.45343439 16.7889931,4.75006705 L16.7889931,7.36041569 L19.5775135,4.57209086 C19.8150135,4.33478643 20.1704557,4.33478643 20.4079557,4.57209086 C20.6454557,4.80939528 20.6454557,5.16535616 20.4079557,5.40265208 L17.6194353,8.19097691 L20.2302346,8.19097691 C20.5266632,8.19097691 20.8231768,8.48760956 20.8231768,8.78426773 C20.8231768,9.14022011 20.5266632,9.37746501 20.2302346,9.37746501 L16.433636,9.37746501 L14.2379727,11.572533 L18.5096564,11.572533 C18.806085,11.572533 19.1025135,11.809863 19.1025135,12.1658153 C19.1025135,12.462414 18.806085,12.7590977 18.5096564,12.7590977 L13.0513231,12.7590977 L10.8565952,14.9541657 L14.2978367,14.9541657 C14.5942652,14.9541657 14.8906938,15.1914956 14.8906938,15.547448 C14.8906938,15.9034004 14.5942652,16.1406453 14.2978367,16.1406453 L9.66994551,16.1406453 L5.99203735,19.8188766 Z" id="path2_fill"></path>
            </g>
        </g>
    </g>
</svg>