<svg xmlns="http://www.w3.org/2000/svg" xmlns:xlink="http://www.w3.org/1999/xlink" version="1.1" x="0px" y="0px" viewBox="0 0 100 100" enable-background="new 0 0 100 100" xml:space="preserve"><circle cx="45.834" cy="13.391" r="8.391"></circle><path d="M83.146,75.858L78.87,51.607c-0.316-1.995-1.778-3.591-3.695-4.115c-0.085-0.024-0.166-0.059-0.253-0.079  c-0.161-0.034-0.331-0.044-0.497-0.063c-0.182-0.022-0.36-0.053-0.547-0.055c-0.019,0-0.035-0.006-0.054-0.006l-18.797-0.003  l-1.363-7.733h14.624c1.737,0,3.147-1.409,3.147-3.146s-1.41-3.146-3.147-3.146H52.556c-0.001,0-0.001,0-0.001,0l-0.795-4.508  c-0.627-3.551-4.013-5.922-7.563-5.297c-3.551,0.626-5.923,4.013-5.296,7.564l3.726,21.126c0.554,3.148,3.282,5.358,6.367,5.386  c0.042,0.001,0.082,0.012,0.125,0.012h20.387l3.544,20.096c0.492,2.788,3.15,4.651,5.941,4.159  C81.777,81.308,83.639,78.647,83.146,75.858z"></path><path d="M68.523,80.234c-0.714,0-1.353,0.312-1.799,0.8l-0.007-0.005l-0.467,0.511c-0.002,0.003-0.518,0.57-0.787,0.847  c-4.852,4.977-11.341,7.719-18.272,7.719c-14.072,0-25.522-11.447-25.522-25.522c0.001-8.935,4.783-17.337,12.479-21.931  l0.414-0.241l-0.013-0.023c0.762-0.414,1.286-1.213,1.286-2.142c0-1.352-1.097-2.447-2.447-2.447c-0.533,0-1.021,0.175-1.423,0.465  c-0.221,0.128-0.495,0.288-0.672,0.398c-9.09,5.594-14.517,15.285-14.517,25.921C16.774,81.356,30.42,95,47.191,95  c8.291,0,16.044-3.286,21.833-9.257c0.297-0.306,0.869-0.937,0.869-0.937l0.356-0.391c0.005-0.006,0.009-0.011,0.015-0.017  l0.104-0.114l-0.005-0.006c0.373-0.429,0.607-0.983,0.607-1.598C70.971,81.329,69.874,80.234,68.523,80.234z"></path></svg>