<svg xmlns="http://www.w3.org/2000/svg" xmlns:xlink="http://www.w3.org/1999/xlink" viewBox="0 0 24 23" version="1.1" x="0px" y="0px"><title>18 -Ark- (Outline)</title><desc>Created with Sketch.</desc><g stroke="none" stroke-width="1" fill="none" fill-rule="evenodd"><g fill="#000000"><path d="M21.9000106,16.007 C21.4368239,18.2894223 19.4192427,20.007 17,20.007 L7,20.007 C4.58075734,20.007 2.56317607,18.2894223 2.09998944,16.007 L21.9000106,16.007 Z M17,22.007 C20.8662847,22.007 24,18.8732847 24,15.007 L24,14.007 L0,14.007 L0,15.007 C0,18.8732847 3.13371525,22.007 7,22.007 L17,22.007 Z"></path><path d="M5,16.007 L19,16.007 C19.5522847,16.007 20,15.5592847 20,15.007 L20,5.007 C20,4.45471525 19.5522847,4.007 19,4.007 L5,4.007 C4.44771525,4.007 4,4.45471525 4,5.007 L4,15.007 C4,15.5592847 4.44771525,16.007 5,16.007 Z M6,6.007 L18,6.007 L18,14.007 L6,14.007 L6,6.007 Z"></path><path d="M4,6.007 L20,6.007 C20.926602,6.007 21.9831578,5.44255913 22.7092926,4.71191422 C23.3164285,4.10100729 22.9187166,3.0594869 22.0589226,3.00873744 C21.8798743,2.9981691 21.4984683,2.9244476 20.9824948,2.73234715 C20.0879997,2.3993205 19.1857931,1.83730694 18.3341792,0.986655124 C18.1406984,0.793392905 17.9517663,0.586775524 17.7678008,0.366311378 C17.5778045,0.13861992 17.2965502,0.007 17,0.007 L7,0.007 C6.70344984,0.007 6.4221955,0.13861992 6.23219919,0.366311378 C6.04823367,0.586775524 5.8593016,0.793392905 5.6658208,0.986655124 C4.8142069,1.83730694 3.9120003,2.3993205 3.01750522,2.73234715 C2.50153174,2.9244476 2.12012568,2.9981691 1.94107742,3.00873744 C1.08128339,3.0594869 0.683571531,4.10100729 1.29070743,4.71191422 C2.01684219,5.44255913 3.07339796,6.007 4,6.007 Z M7.07923485,2.40166774 C7.2064795,2.27456685 7.33184223,2.14302966 7.45523733,2.007 L16.5447669,2.007 C16.6681578,2.14302966 16.7935205,2.27456685 16.9207651,2.40166774 C17.5881789,3.06832752 18.2896181,3.59840682 19.0056042,4.007 L4.99439576,4.007 C5.71038186,3.59840682 6.41182108,3.06832752 7.07923485,2.40166774 Z"></path><path d="M10,14.007 L10,12.007 C10,10.9022847 10.8952847,10.007 12,10.007 C13.1047153,10.007 14,10.9022847 14,12.007 L14,14.007 L10,14.007 Z M15,16.007 C15.5522847,16.007 16,15.5592847 16,15.007 L16,12.007 C16,9.79771525 14.2092847,8.007 12,8.007 C9.79071525,8.007 8,9.79771525 8,12.007 L8,15.007 C8,15.5592847 8.44771525,16.007 9,16.007 L15,16.007 Z"></path></g></g></svg>