<svg xmlns="http://www.w3.org/2000/svg" xmlns:xlink="http://www.w3.org/1999/xlink" viewBox="0 0 24 23" version="1.1" x="0px" y="0px"><title>13 -Science Presentation- (Outline)</title><desc>Created with Sketch.</desc><g stroke="none" stroke-width="1" fill="none" fill-rule="evenodd"><g fill="#000000"><path d="M21.9998,3 L1.9998,3 L1.9998,2 L21.9998,2 L21.9998,3 Z M22.1788,5 C23.1849279,5 23.9998,4.18444202 23.9998,3.179 L23.9998,1.821 C23.9998,0.815557977 23.1849279,0 22.1788,0 L1.8208,0 C0.81551525,0 -0.0002,0.81571525 -0.0002,1.821 L-0.0002,3.179 C-0.0002,4.18428475 0.81551525,5 1.8208,5 L22.1788,5 Z"></path><path d="M2,21 L22,21 C22.5522847,21 23,20.5522847 23,20 L23,4 C23,3.44771525 22.5522847,3 22,3 L2,3 C1.44771525,3 1,3.44771525 1,4 L1,20 C1,20.5522847 1.44771525,21 2,21 Z M3,5 L21,5 L21,19 L3,19 L3,5 Z"></path><path d="M13,22 L13,20 C13,19.4477153 12.5522847,19 12,19 C11.4477153,19 11,19.4477153 11,20 L11,22 C11,22.5522847 11.4477153,23 12,23 C12.5522847,23 13,22.5522847 13,22 Z"></path><path d="M15,12.618034 L15,13.381966 L14,13.881966 L13,13.381966 L13,12.618034 L14,12.118034 L15,12.618034 Z M14.4472136,10.1055728 C14.1656861,9.96480906 13.8343139,9.96480906 13.5527864,10.1055728 L11.5527864,11.1055728 C11.2140024,11.2749648 11,11.6212279 11,12 L11,14 C11,14.3787721 11.2140024,14.7250352 11.5527864,14.8944272 L13.5527864,15.8944272 C13.8343139,16.0351909 14.1656861,16.0351909 14.4472136,15.8944272 L16.4472136,14.8944272 C16.7859976,14.7250352 17,14.3787721 17,14 L17,12 C17,11.6212279 16.7859976,11.2749648 16.4472136,11.1055728 L14.4472136,10.1055728 Z"></path><path d="M11,12.618034 L11,13.381966 L10,13.881966 L9,13.381966 L9,12.618034 L10,12.118034 L11,12.618034 Z M10.4472136,10.1055728 C10.1656861,9.96480906 9.8343139,9.96480906 9.5527864,10.1055728 L7.5527864,11.1055728 C7.21400238,11.2749648 7,11.6212279 7,12 L7,14 C7,14.3787721 7.21400238,14.7250352 7.5527864,14.8944272 L9.5527864,15.8944272 C9.8343139,16.0351909 10.1656861,16.0351909 10.4472136,15.8944272 L12.4472136,14.8944272 C12.7859976,14.7250352 13,14.3787721 13,14 L13,12 C13,11.6212279 12.7859976,11.2749648 12.4472136,11.1055728 L10.4472136,10.1055728 Z"></path><path d="M13,9.61803399 L13,10.381966 L12,10.881966 L11,10.381966 L11,9.61803399 L12,9.11803399 L13,9.61803399 Z M12.4472136,7.10557281 C12.1656861,6.96480906 11.8343139,6.96480906 11.5527864,7.10557281 L9.5527864,8.10557281 C9.21400238,8.27496482 9,8.62122794 9,9 L9,11 C9,11.3787721 9.21400238,11.7250352 9.5527864,11.8944272 L11.5527864,12.8944272 C11.8343139,13.0351909 12.1656861,13.0351909 12.4472136,12.8944272 L14.4472136,11.8944272 C14.7859976,11.7250352 15,11.3787721 15,11 L15,9 C15,8.62122794 14.7859976,8.27496482 14.4472136,8.10557281 L12.4472136,7.10557281 Z"></path></g></g></svg>