<svg xmlns="http://www.w3.org/2000/svg" xmlns:xlink="http://www.w3.org/1999/xlink" version="1.1" x="0px" y="0px" viewBox="0 0 100 100" enable-background="new 0 0 100 100" xml:space="preserve"><g><path d="M98.04,49.919c0.029-0.096,0.037-0.198,0.017-0.304l-4.511-13.012c-0.196-1.213-1.229-2.103-2.46-2.103H77.389   c-1.231,0-2.264,0.89-2.456,2.086l-4.515,13.028c-0.021,0.104-0.012,0.207,0.015,0.304c-0.015,0.122-0.026,0.237-0.026,0.35   c0,1.379,1.12,2.5,2.494,2.5c1.208,0,2.506-0.862,2.725-2.061l3.875-9.671v0.06l-4.596,16.496   c-0.334,1.316,0.234,1.908,1.592,1.908h2.454l-0.008,13.502c0,1.377,1.071,2.738,2.446,2.738c0.925,0,1.111-0.264,2.111-1.01V59.5   h1v15.005c0,0.87,1.379,1.477,2.393,1.477c1.375,0,2.607-1.124,2.607-2.498V59.5h2.546c1.357,0,2.187-0.592,1.848-1.906   L89.5,41.051v-0.015l3.614,9.682c0.218,1.187,1.249,2.049,2.452,2.049c1.379,0,2.502-1.119,2.502-2.499   C98.068,50.156,98.057,50.042,98.04,49.919z M84.27,33.208c2.947,0,5.347-2.396,5.347-5.347c0-2.946-2.399-5.347-5.347-5.347   c-2.948,0-5.345,2.4-5.345,5.347C78.925,30.813,81.321,33.208,84.27,33.208z"></path><path d="M30.702,49.919c0.03-0.096,0.037-0.198,0.018-0.304l-4.511-13.012c-0.196-1.213-1.229-2.103-2.46-2.103H10.051   c-1.231,0-2.263,0.89-2.457,2.086L3.08,49.614c-0.022,0.104-0.012,0.207,0.015,0.304c-0.015,0.122-0.027,0.237-0.027,0.35   c0,1.379,1.121,2.5,2.496,2.5c1.208,0,2.174-0.862,2.394-2.061l3.543-9.671v0.06L7.236,57.592C6.9,58.908,7.8,59.5,9.158,59.5   h2.455l-0.009,13.502c0,1.377,1.241,2.738,2.618,2.738c0.923,0,1.278-0.264,2.278-1.01V59.5h1v15.005   c0,0.87,1.222,1.477,2.235,1.477c1.376,0,2.479-1.604,2.479-2.979L22.188,59.5h2.521c1.358,0,2.354-0.592,2.016-1.906L22.5,41.051   v-0.015l3.445,9.682c0.218,1.187,1.163,2.049,2.366,2.049c1.379,0,2.462-1.119,2.462-2.499   C30.773,50.156,30.719,50.042,30.702,49.919z M16.932,33.208c2.946,0,5.346-2.396,5.346-5.347c0-2.946-2.4-5.347-5.346-5.347   c-2.949,0-5.344,2.4-5.344,5.347C11.588,30.813,13.983,33.208,16.932,33.208z"></path><path d="M68.331,50.339c0.038-0.125,0.047-0.256,0.021-0.391l-5.804-16.743c-0.252-1.561-1.582-2.705-3.166-2.705H41.756   c-1.584,0-2.912,1.145-3.162,2.684l-5.808,16.763c-0.028,0.135-0.015,0.267,0.02,0.392c-0.02,0.156-0.035,0.306-0.035,0.45   c0,1.776,1.442,3.216,3.211,3.216c1.553,0,2.737-1.108,3.019-2.649L43.5,38.908v0.078l-5.426,21.643   C37.643,62.32,38.86,63.5,40.607,63.5h3.159l-0.01,18.092c0,1.771,1.318,3.313,3.089,3.313c1.188,0,2.655-0.546,2.655-1.507V63.5h2   v19.608c0,1.119,1.492,1.9,2.797,1.9c1.771,0,3.15-1.649,3.15-3.417L57.374,63.5h3.243c1.747,0,2.891-1.178,2.457-2.869   L57.5,38.928v-0.02l4.57,12.459c0.281,1.527,1.566,2.636,3.115,2.636c1.773,0,3.201-1.439,3.201-3.215   C68.387,50.645,68.352,50.497,68.331,50.339z M50.611,28.836c3.791,0,6.88-3.082,6.88-6.88c0-3.791-3.089-6.88-6.88-6.88   c-3.795,0-6.876,3.089-6.876,6.88C43.735,25.754,46.816,28.836,50.611,28.836z"></path><path d="M32.513,26.523c2.625,0,4.763-2.134,4.763-4.763c0-2.625-2.138-4.763-4.763-4.763c-2.627,0-4.761,2.138-4.761,4.763   C27.752,24.39,29.886,26.523,32.513,26.523z"></path><path d="M68.629,26.523c2.626,0,4.764-2.134,4.764-4.764c0-2.625-2.138-4.765-4.764-4.765c-2.628,0-4.762,2.14-4.762,4.765   C63.867,24.389,66.001,26.523,68.629,26.523z"></path></g></svg>